<svg xmlns="http://www.w3.org/2000/svg" xmlns:xlink="http://www.w3.org/1999/xlink" width="500" zoomAndPan="magnify" viewBox="0 0 375 374.999991" height="500" preserveAspectRatio="xMidYMid meet" version="1.0"><defs><g/><clipPath id="e01611c0df"><path d="M 162.5625 37.5 L 328.3125 37.5 L 328.3125 294.75 L 162.5625 294.75 Z M 162.5625 37.5 " clip-rule="nonzero"/></clipPath></defs><g fill="#000000" fill-opacity="1"><g transform="translate(63.628208, 285.427002)"><g><path d="M 31.445312 -22.679688 L 89.953125 -22.679688 L 89.953125 -31.445312 L 31.445312 -31.445312 L 31.445312 -205.675781 L 22.679688 -205.675781 L 22.679688 -31.445312 L 8.761719 -31.445312 L 8.761719 -205.675781 L 0 -205.675781 L 0 0 L 89.953125 0 L 89.953125 -8.761719 L 31.445312 -8.761719 Z M 22.679688 -8.761719 L 8.761719 -8.761719 L 8.761719 -22.679688 L 22.679688 -22.679688 Z M 22.679688 -8.761719 "/></g></g></g><g fill="#000000" fill-opacity="1"><g transform="translate(104.024834, 330.280918)"><g><path d="M 3.910156 -1.886719 L 3.910156 -18.34375 L 2.023438 -18.34375 L 2.023438 0 L 10.46875 0 L 10.46875 -1.886719 Z M 3.910156 -1.886719 "/></g></g></g><g fill="#000000" fill-opacity="1"><g transform="translate(115.031051, 330.280918)"><g><path d="M 4.992188 -6.746094 L 8.335938 -15.1875 L 11.65625 -6.746094 Z M 16.375 0 L 8.335938 -19.613281 L 0.269531 0 L 2.320312 0 L 4.289062 -4.992188 L 12.355469 -4.992188 L 14.324219 0 Z M 16.375 0 "/></g></g></g><g fill="#000000" fill-opacity="1"><g transform="translate(131.675248, 330.280918)"><g><path d="M 3.910156 -9.066406 L 3.910156 -16.539062 L 8.175781 -16.539062 C 9.28125 -16.539062 10.171875 -16.1875 10.84375 -15.484375 C 11.492188 -14.785156 11.84375 -13.921875 11.84375 -12.839844 C 11.84375 -11.761719 11.492188 -10.871094 10.792969 -10.144531 C 10.089844 -9.414062 9.226562 -9.066406 8.175781 -9.066406 Z M 13.730469 -12.816406 C 13.730469 -14.378906 13.136719 -15.726562 12.003906 -16.78125 C 10.898438 -17.804688 9.523438 -18.34375 7.90625 -18.34375 L 2.023438 -18.34375 L 2.023438 0 L 3.910156 0 L 3.910156 -7.257812 L 6.097656 -7.257812 L 11.492188 0 L 14.027344 0 L 8.363281 -7.257812 C 9.792969 -7.339844 11.007812 -7.851562 12.003906 -8.792969 C 13.136719 -9.847656 13.730469 -11.195312 13.730469 -12.816406 Z M 13.730469 -12.816406 "/></g></g></g><g fill="#000000" fill-opacity="1"><g transform="translate(146.350199, 330.280918)"><g><path d="M 4.992188 -6.746094 L 8.335938 -15.1875 L 11.65625 -6.746094 Z M 16.375 0 L 8.335938 -19.613281 L 0.269531 0 L 2.320312 0 L 4.289062 -4.992188 L 12.355469 -4.992188 L 14.324219 0 Z M 16.375 0 "/></g></g></g><g fill="#000000" fill-opacity="1"><g transform="translate(162.994396, 330.280918)"><g/></g></g><g fill="#000000" fill-opacity="1"><g transform="translate(170.277925, 330.280918)"><g><path d="M 4.992188 -6.746094 L 8.335938 -15.1875 L 11.65625 -6.746094 Z M 16.375 0 L 8.335938 -19.613281 L 0.269531 0 L 2.320312 0 L 4.289062 -4.992188 L 12.355469 -4.992188 L 14.324219 0 Z M 16.375 0 "/></g></g></g><g fill="#000000" fill-opacity="1"><g transform="translate(186.922122, 330.280918)"><g><path d="M 15.296875 -6.070312 L 15.296875 -18.34375 L 13.40625 -18.34375 L 13.40625 -5.800781 C 13.40625 -5.042969 13.273438 -4.425781 13.003906 -3.910156 C 12.222656 -2.402344 10.710938 -1.644531 8.472656 -1.644531 C 7.015625 -1.644531 5.855469 -1.96875 4.992188 -2.617188 C 3.992188 -3.34375 3.507812 -4.398438 3.507812 -5.800781 L 3.507812 -18.34375 L 1.617188 -18.34375 L 1.617188 -6.070312 C 1.617188 -4.074219 2.265625 -2.507812 3.5625 -1.375 C 4.773438 -0.296875 6.421875 0.242188 8.472656 0.242188 C 10.496094 0.242188 12.113281 -0.296875 13.355469 -1.375 C 14.648438 -2.507812 15.296875 -4.074219 15.296875 -6.070312 Z M 15.296875 -6.070312 "/></g></g></g><g fill="#000000" fill-opacity="1"><g transform="translate(203.836078, 330.280918)"><g><path d="M 16.269531 -9.171875 C 16.269531 -10.496094 15.996094 -11.707031 15.511719 -12.839844 C 15.027344 -13.972656 14.351562 -14.945312 13.515625 -15.753906 C 12.652344 -16.566406 11.65625 -17.183594 10.519531 -17.644531 C 9.363281 -18.101562 8.121094 -18.34375 6.824219 -18.34375 L 2.023438 -18.34375 L 2.023438 0 L 6.824219 0 C 8.121094 0 9.363281 -0.214844 10.519531 -0.675781 C 11.65625 -1.132812 12.652344 -1.78125 13.515625 -2.589844 C 14.351562 -3.398438 15.027344 -4.34375 15.511719 -5.476562 C 15.996094 -6.609375 16.269531 -7.824219 16.269531 -9.171875 Z M 14.433594 -9.171875 C 14.433594 -7.066406 13.679688 -5.316406 12.222656 -3.9375 C 10.765625 -2.5625 8.984375 -1.886719 6.878906 -1.886719 L 3.910156 -1.886719 L 3.910156 -16.457031 L 6.878906 -16.457031 C 8.984375 -16.457031 10.765625 -15.753906 12.222656 -14.40625 C 13.679688 -13.003906 14.433594 -11.25 14.433594 -9.171875 Z M 14.433594 -9.171875 "/></g></g></g><g fill="#000000" fill-opacity="1"><g transform="translate(221.31653, 330.280918)"><g><path d="M 3.910156 -9.066406 L 3.910156 -16.539062 L 8.175781 -16.539062 C 9.28125 -16.539062 10.171875 -16.1875 10.84375 -15.484375 C 11.492188 -14.785156 11.84375 -13.921875 11.84375 -12.839844 C 11.84375 -11.761719 11.492188 -10.871094 10.792969 -10.144531 C 10.089844 -9.414062 9.226562 -9.066406 8.175781 -9.066406 Z M 13.730469 -12.816406 C 13.730469 -14.378906 13.136719 -15.726562 12.003906 -16.78125 C 10.898438 -17.804688 9.523438 -18.34375 7.90625 -18.34375 L 2.023438 -18.34375 L 2.023438 0 L 3.910156 0 L 3.910156 -7.257812 L 6.097656 -7.257812 L 11.492188 0 L 14.027344 0 L 8.363281 -7.257812 C 9.792969 -7.339844 11.007812 -7.851562 12.003906 -8.792969 C 13.136719 -9.847656 13.730469 -11.195312 13.730469 -12.816406 Z M 13.730469 -12.816406 "/></g></g></g><g fill="#000000" fill-opacity="1"><g transform="translate(235.991481, 330.280918)"><g><path d="M 12.921875 0 L 12.921875 -1.753906 L 3.910156 -1.753906 L 3.910156 -8.28125 L 12.652344 -8.28125 L 12.652344 -10.0625 L 3.910156 -10.0625 L 3.910156 -16.589844 L 12.921875 -16.589844 L 12.921875 -18.34375 L 2.023438 -18.34375 L 2.023438 0 Z M 12.921875 0 "/></g></g></g><g fill="#000000" fill-opacity="1"><g transform="translate(250.936191, 330.280918)"><g><path d="M 9.117188 -8.632812 L 16.050781 -18.34375 L 13.652344 -18.34375 L 8.175781 -10.496094 L 2.699219 -18.34375 L 0.269531 -18.34375 L 7.230469 -8.605469 L 7.230469 0 L 9.117188 0 Z M 9.117188 -8.632812 "/></g></g></g><g clip-path="url(#e01611c0df)"><path fill="#cea08c" d="M 162.5625 294.949219 L 162.5625 120.417969 C 162.5625 74.832031 199.855469 37.539062 245.441406 37.539062 C 291.027344 37.539062 328.324219 74.832031 328.324219 120.417969 L 328.324219 294.949219 Z M 162.5625 294.949219 " fill-opacity="1" fill-rule="nonzero"/></g><g fill="#fffafa" fill-opacity="1"><g transform="translate(172.264491, 285.427002)"><g><path d="M 40.207031 -205.164062 C 17.527344 -201.039062 0 -180.933594 0 -157.480469 L 0 0 L 9.277344 0 L 9.277344 -72.425781 L 23.195312 -64.433594 L 23.195312 0 L 32.476562 0 L 32.476562 -59.28125 L 64.175781 -40.980469 L 64.175781 0 L 73.457031 0 L 73.457031 -46.394531 C 59.796875 -54.382812 46.136719 -61.859375 32.476562 -69.847656 L 32.476562 -85.828125 C 46.136719 -77.839844 59.796875 -70.363281 73.457031 -62.375 L 73.457031 -157.480469 C 73.457031 -170.882812 62.117188 -182.738281 48.199219 -182.738281 C 34.539062 -182.738281 23.195312 -170.882812 23.195312 -157.480469 L 23.195312 -75.261719 L 9.277344 -83.25 L 9.277344 -157.480469 C 9.277344 -178.871094 26.804688 -196.65625 48.199219 -196.65625 C 69.589844 -196.65625 87.375 -178.871094 87.375 -157.480469 L 87.375 0 L 96.652344 0 L 96.652344 -157.480469 C 96.652344 -187.636719 69.074219 -210.058594 40.207031 -205.164062 Z M 32.476562 -96.652344 L 32.476562 -157.480469 C 32.476562 -166.5 39.691406 -173.460938 48.199219 -173.460938 C 57.21875 -173.460938 64.175781 -166.5 64.175781 -157.480469 L 64.175781 -78.609375 Z M 32.476562 -96.652344 "/></g></g></g></svg>